<?xml version="1.0" standalone="no"?>
<!DOCTYPE svg PUBLIC "-//W3C//DTD SVG 20010904//EN"
 "http://www.w3.org/TR/2001/REC-SVG-20010904/DTD/svg10.dtd">
<svg version="1.0" xmlns="http://www.w3.org/2000/svg"
 width="500.000000pt" height="500.000000pt" viewBox="0 0 500.000000 500.000000"
 preserveAspectRatio="xMidYMid meet">

<g transform="translate(0.000000,500.000000) scale(0.100000,-0.100000)"
fill="#000000" stroke="none">
<path d="M2295 4030 c-554 -78 -1027 -433 -1242 -931 -19 -45 -36 -95 -37
-112 l-1 -30 237 -77 c180 -59 240 -74 248 -65 5 6 17 31 25 55 39 111 150
267 264 373 477 440 1234 345 1598 -201 19 -30 55 -96 79 -147 l44 -94 47 14
c27 8 134 43 238 78 l190 64 -1 35 c-1 45 -97 245 -168 352 -113 170 -266 322
-431 430 -200 130 -318 179 -590 242 -81 18 -404 28 -500 14z m293 -172 c3
-23 -1 -28 -17 -28 -12 0 -21 5 -21 10 0 6 -9 10 -19 10 -18 0 -19 -5 -14 -72
3 -40 10 -74 15 -76 4 -2 8 -10 8 -18 0 -10 -13 -14 -45 -14 -33 0 -45 4 -45
15 0 8 5 15 10 15 6 0 10 32 10 75 0 68 -2 75 -20 75 -11 0 -20 -7 -20 -15 0
-20 -26 -19 -34 1 -16 43 13 53 149 50 36 -1 40 -4 43 -28z m-317 -25 c7 -20
6 -28 -3 -35 -18 -11 -28 -10 -28 3 0 6 -12 9 -27 7 -22 -2 -28 -8 -28 -28 0
-26 2 -27 48 -16 22 5 27 3 27 -13 0 -13 -9 -21 -30 -26 -29 -6 -36 -19 -24
-48 7 -19 44 -11 65 16 19 24 39 15 39 -18 0 -25 -2 -26 -80 -45 -25 -6 -52
-13 -61 -16 -12 -3 -15 5 -15 43 0 63 -21 133 -39 133 -8 0 -15 6 -15 13 0 9
28 22 73 35 92 26 86 26 98 -5z m689 -85 c0 -43 3 -78 8 -78 4 0 27 27 52 60
24 33 45 60 46 60 1 0 18 -7 38 -15 39 -17 46 -30 19 -37 -24 -6 -66 -131 -50
-147 8 -8 8 -14 0 -22 -7 -7 -21 -6 -47 5 -36 15 -49 36 -22 36 8 0 21 21 30
48 l16 47 -48 -54 c-30 -34 -53 -52 -60 -47 -8 4 -12 36 -13 84 l0 77 -15 -45
c-8 -25 -11 -57 -8 -72 6 -32 5 -32 -47 -16 -37 11 -55 38 -25 38 15 0 18 6
46 86 12 35 15 55 8 62 -20 20 1 31 37 19 l35 -10 0 -79z m-1037 -37 c-2 -12
11 -48 27 -81 28 -56 31 -59 54 -49 13 6 23 18 22 27 -2 27 29 25 42 -3 12
-26 11 -27 -60 -60 -74 -34 -94 -36 -83 -7 9 23 -44 139 -66 145 -28 7 -23 21
14 40 40 19 53 16 50 -12z m1419 -64 c16 -12 15 -20 -7 -106 -13 -51 -21 -99
-19 -106 10 -24 -12 -24 -42 0 -29 23 -29 24 -9 39 20 16 20 16 -5 36 -32 25
-50 25 -50 0 0 -11 -6 -20 -14 -20 -22 0 -60 35 -52 49 4 6 11 9 15 7 4 -3 41
22 82 54 41 32 76 59 79 59 3 0 13 -5 22 -12z m-1660 -80 c-2 -9 16 -41 39
-72 40 -53 42 -54 64 -39 13 9 22 21 19 29 -9 23 17 28 39 6 11 -11 19 -22 16
-24 -79 -63 -129 -95 -134 -87 -3 5 -4 14 0 20 9 15 -85 129 -101 123 -25 -9
-15 25 14 46 30 23 48 22 44 -2z m1862 -182 c-19 -34 -34 -64 -34 -68 0 -3 30
7 68 23 l67 29 28 -27 c30 -28 31 -49 2 -44 -22 4 -115 -85 -115 -110 0 -25
-12 -22 -44 11 -27 28 -28 58 -2 48 7 -3 30 10 52 29 l39 33 -68 -26 c-89 -35
-99 -26 -57 58 l32 64 -36 -34 c-20 -19 -36 -43 -36 -53 0 -25 -12 -22 -44 11
-27 28 -28 54 -1 49 19 -4 115 80 115 101 0 33 14 32 41 0 l27 -33 -34 -61z
m-2014 47 c0 -11 23 -39 50 -64 61 -56 67 -93 21 -139 -41 -41 -75 -38 -135
11 -26 22 -56 40 -66 40 -32 0 -30 16 4 49 21 21 36 29 40 22 4 -6 5 -15 2
-20 -8 -12 84 -91 105 -91 20 0 39 20 39 41 0 22 -89 101 -107 95 -23 -9 -25
14 -3 44 24 34 50 40 50 12z m-168 -292 c8 -13 24 -20 42 -20 34 0 66 -25 66
-52 0 -30 -60 -140 -73 -135 -7 3 -11 10 -10 16 4 16 -134 84 -143 70 -4 -7
-10 -7 -16 -1 -11 11 22 84 55 120 25 27 63 29 79 2z m2463 -31 c5 -16 -6 -34
-52 -82 -32 -34 -66 -73 -74 -87 l-16 -25 -17 33 c-18 34 -13 57 9 48 20 -7
24 15 8 47 -16 31 -28 34 -42 10 -10 -17 -12 -16 -31 7 -29 36 -25 48 18 49
20 0 60 5 87 10 84 15 103 13 110 -10z"/>
<path d="M3281 3580 c-19 -17 -21 -23 -11 -35 7 -9 15 -14 17 -12 4 5 23 67
20 67 -1 -1 -13 -10 -26 -20z"/>
<path d="M1291 3091 c-9 -17 -8 -22 11 -32 18 -10 24 -8 35 7 17 23 12 38 -15
42 -13 2 -25 -4 -31 -17z"/>
<path d="M1370 3061 c-15 -29 -13 -37 14 -49 22 -10 25 -8 36 18 7 16 9 34 5
39 -10 18 -44 12 -55 -8z"/>
<path d="M3738 3083 c-16 -2 -28 -11 -28 -18 0 -25 17 -25 40 0 13 14 22 24
19 24 -2 -1 -16 -4 -31 -6z"/>
<path d="M2249 3205 c-41 -7 -101 -20 -133 -29 -51 -15 -58 -15 -72 -1 -24 24
-70 19 -93 -11 -11 -14 -18 -31 -15 -38 3 -8 -21 -22 -68 -41 -87 -33 -92 -37
-84 -63 7 -20 8 -20 88 9 44 16 82 28 84 26 2 -2 -16 -17 -40 -34 -49 -35 -81
-76 -71 -93 11 -18 25 -11 25 13 0 34 28 55 122 92 61 24 84 38 86 53 2 14 18
24 59 36 31 8 58 14 61 12 2 -2 -17 -27 -42 -55 -25 -28 -50 -60 -57 -72 -10
-20 -9 -21 12 -15 117 33 202 42 161 17 -19 -11 -30 -63 -20 -90 12 -33 -1
-138 -20 -153 -8 -7 -38 -18 -66 -25 l-51 -12 59 6 c42 4 57 3 52 -6 -4 -6
-31 -11 -59 -11 -41 0 -55 4 -65 20 -7 11 -20 20 -30 19 -12 0 -11 -3 6 -10
15 -5 22 -16 20 -26 -4 -22 -37 -30 -50 -11 -8 11 -9 10 -6 -1 8 -27 35 -37
55 -19 14 12 31 15 71 11 50 -5 52 -7 54 -37 1 -40 -1 -85 -7 -113 -5 -22 -9
-23 -139 -23 -109 0 -138 -3 -150 -16 -9 -8 -16 -18 -16 -22 0 -31 43 -258 50
-267 5 -6 52 -42 105 -80 52 -38 95 -73 95 -77 0 -5 -11 -19 -25 -32 -33 -31
-33 -72 1 -102 22 -21 35 -24 100 -24 70 0 75 1 84 25 24 62 30 20 30 -194 l0
-219 36 -23 c68 -41 180 -38 234 7 l30 26 0 214 c0 118 4 214 8 214 5 0 14
-11 20 -25 11 -23 16 -25 84 -25 65 0 76 3 101 25 34 32 34 58 2 97 -14 16
-25 33 -25 37 0 5 46 42 103 84 l103 75 17 109 c21 129 21 167 4 181 -8 7 -69
13 -147 14 l-134 3 -8 35 c-4 19 -5 56 -2 81 l6 47 51 5 c36 3 55 0 65 -10 18
-17 41 -14 56 10 14 21 -2 51 -30 54 -14 2 -13 0 4 -7 29 -12 25 -44 -6 -48
-21 -3 -26 5 -23 38 1 11 -1 11 -9 -2 -8 -14 -24 -18 -65 -18 -33 0 -55 4 -55
11 0 7 20 9 58 5 l57 -5 -58 12 c-40 8 -62 19 -70 32 -6 11 -12 66 -12 123 -1
78 -4 105 -15 112 -45 28 73 15 148 -16 17 -7 32 -10 32 -7 0 10 -50 75 -89
116 -20 22 -29 37 -21 36 31 -1 115 -37 113 -48 -3 -13 30 -35 82 -52 71 -24
130 -63 130 -87 0 -12 5 -22 10 -22 6 0 10 10 10 22 0 15 -17 35 -53 62 -29
21 -51 41 -49 43 3 2 36 -8 76 -23 39 -14 78 -23 87 -20 33 13 7 38 -68 68
-66 25 -78 33 -78 52 0 48 -73 75 -110 41 -14 -13 -22 -13 -64 0 -27 8 -56 15
-65 14 -9 0 12 -10 47 -20 34 -11 62 -24 62 -29 0 -6 -11 -5 -27 1 -15 6 -41
12 -58 13 -16 2 -46 7 -65 12 l-35 7 62 -69 c34 -38 60 -70 59 -72 -2 -1 -29
4 -62 13 -77 20 -115 20 -108 0 8 -20 -20 -20 -40 1 -24 23 -20 45 7 40 12 -3
49 -8 82 -11 l60 -7 -65 67 -65 67 65 -5 c49 -4 56 -4 30 3 -19 5 -69 12 -110
16 l-75 6 45 -30 c25 -16 60 -45 77 -64 l33 -34 -71 4 -72 4 7 -37 7 -38 -38
8 c-49 10 -98 10 -147 0 l-39 -8 7 37 7 38 -70 -4 c-39 -1 -71 0 -71 4 0 7 70
65 120 100 l25 17 -40 -1 c-22 0 -74 -6 -116 -13z m11 -71 l-65 -65 65 7 c98
11 95 11 92 -11 -5 -24 -2 -21 -29 -29 -18 -6 -23 -3 -23 12 0 18 -4 19 -47
11 -26 -5 -63 -13 -82 -19 -19 -5 -36 -8 -38 -6 -2 1 24 33 58 69 59 65 60 78
7 58 -13 -4 -50 -11 -83 -14 l-60 -7 40 16 c52 20 151 42 195 43 l34 1 -64
-66z m330 -139 c107 -102 14 -274 -128 -236 -115 31 -139 189 -39 252 47 30
127 22 167 -16z m-244 10 c-3 -10 1 -15 12 -16 9 0 1 -5 -18 -11 -19 -5 -45
-19 -57 -31 l-23 -20 0 24 c0 41 28 66 74 68 12 1 16 -4 12 -14z m376 -4 c4
-4 11 -22 14 -41 l7 -35 -24 22 c-13 12 -40 26 -59 31 -19 6 -27 11 -18 11 12
1 15 6 11 17 -5 14 -1 15 28 9 19 -4 37 -10 41 -14z m-377 -77 c-8 -20 -15
-45 -15 -55 0 -11 -4 -19 -10 -19 -5 0 -10 -9 -10 -20 0 -17 -37 -44 -48 -35
-2 2 0 31 4 65 8 70 29 100 69 100 25 0 25 0 10 -36z m358 18 c9 -10 19 -33
22 -50 16 -100 16 -94 -8 -90 -15 2 -24 12 -28 33 -4 17 -7 26 -8 20 -3 -13
-21 30 -31 73 -7 29 -6 32 15 32 12 0 29 -8 38 -18z m-328 -169 c17 -3 39 -12
50 -19 26 -18 113 -18 149 1 15 8 37 15 48 15 11 0 28 5 40 11 42 23 98 -12
98 -61 l0 -29 -29 17 c-25 14 -35 15 -63 4 -44 -15 -287 -16 -338 -1 -31 9
-44 9 -70 -4 l-31 -16 6 32 c4 18 10 36 12 40 9 15 48 26 73 21 14 -3 39 -8
55 -11z m-41 -89 c16 -16 15 -90 -3 -199 -6 -38 -9 -40 -39 -37 -17 2 -40 -2
-52 -8 -24 -13 -24 -13 -6 128 8 56 20 109 26 117 16 20 55 19 74 -1z m404 4
c5 -7 15 -51 21 -98 6 -47 14 -102 17 -123 6 -38 5 -38 -16 -27 -13 7 -36 9
-55 6 -39 -8 -40 -5 -50 140 -6 83 -5 93 12 103 25 14 58 14 71 -1z m-157
-131 c30 -20 37 -34 56 -106 12 -46 29 -91 37 -100 45 -49 3 -66 -169 -66 -77
0 -152 3 -166 7 -35 10 -43 33 -20 55 11 10 28 53 39 96 29 111 54 135 143
136 32 1 56 -6 80 -22z m-371 -47 c0 -12 -186 -12 -215 0 -13 5 23 9 98 9 72
1 117 -3 117 -9z m790 0 c-37 -12 -210 -12 -210 0 0 6 45 10 118 9 74 -1 108
-4 92 -9z m-800 -97 c0 -73 -19 -241 -29 -261 -5 -9 -31 6 -88 48 l-81 60 -11
76 c-13 85 -14 128 -4 137 3 4 53 7 110 7 l103 0 0 -67z m815 57 c7 -12 -13
-192 -24 -207 -9 -14 -161 -126 -165 -122 -13 16 -35 278 -27 332 2 11 209 9
216 -3z m-757 -230 c-11 -85 -25 -161 -30 -167 -6 -7 -19 -13 -30 -13 -17 0
-19 5 -15 33 3 17 13 92 23 165 17 139 33 178 60 150 10 -11 9 -42 -8 -168z
m62 151 c0 -10 -7 -24 -15 -31 -17 -14 -20 -3 -9 37 7 26 24 21 24 -6z m471
-138 c24 -182 24 -193 0 -193 -11 0 -22 4 -26 10 -3 5 -15 82 -26 171 -17 134
-19 163 -7 170 28 17 41 -20 59 -158z m-89 128 c4 -26 2 -28 -14 -17 -21 13
-24 46 -4 46 8 0 16 -13 18 -29z m24 -192 c13 -108 12 -129 -5 -129 -11 0 -34
204 -26 230 4 12 9 19 12 17 2 -3 11 -56 19 -118z m-421 102 c5 -9 -12 -191
-21 -220 -3 -10 -8 -11 -15 -4 -8 8 -7 44 1 122 12 102 20 126 35 102z m45
-146 c0 -135 -9 -165 -31 -107 -16 40 3 242 22 242 5 0 9 -61 9 -135z m320
118 c0 -10 5 -58 10 -108 11 -88 2 -145 -21 -145 -5 0 -9 61 -9 135 0 83 4
135 10 135 6 0 10 -8 10 -17z m-281 -21 c1 22 5 26 24 22 34 -7 117 -6 170 1
l47 7 -2 -259 c-1 -152 -4 -231 -8 -193 l-7 65 -3 -65 -4 -65 -6 70 -6 70 -3
-70 c-1 -38 -5 -63 -9 -55 -4 8 -14 16 -22 18 -8 2 -16 8 -18 13 -2 5 -12 9
-23 9 -15 0 -19 8 -21 43 l-1 42 -4 -40 c-3 -35 -9 -44 -38 -60 -19 -10 -35
-21 -35 -25 0 -4 -7 -7 -15 -7 -8 0 -15 5 -15 11 0 6 -5 4 -10 -4 -6 -10 -9
74 -9 245 1 143 5 247 9 230 l8 -30 1 27z m565 -36 c-8 -14 -40 -46 -71 -72
-44 -38 -54 -43 -51 -26 2 15 116 117 136 121 1 1 -5 -10 -14 -23z m-784 -93
c0 -22 -18 -14 -69 30 -74 64 -71 85 5 29 35 -26 63 -53 64 -59z m105 -127 c0
-57 -14 -68 -16 -13 0 18 -3 26 -6 20 -2 -8 -22 -13 -45 -13 -35 0 -40 -2 -35
-20 3 -11 1 -20 -4 -20 -12 0 -15 55 -4 88 3 7 24 12 57 12 l53 0 0 -54z m563
2 c2 -30 -1 -48 -8 -48 -6 0 -8 10 -5 23 6 20 3 22 -40 22 -33 0 -45 -4 -45
-15 0 -8 -5 -22 -10 -30 -7 -11 -10 2 -10 43 l0 58 58 -3 57 -3 3 -47z"/>
<path d="M2460 2997 c-48 -17 -83 -71 -76 -117 11 -72 67 -110 141 -96 55 11
85 48 85 106 0 39 -5 54 -29 79 -16 17 -36 31 -44 31 -9 0 -21 2 -29 4 -7 3
-29 0 -48 -7z m111 -36 c58 -58 29 -151 -52 -166 -68 -13 -124 34 -122 102 3
86 112 126 174 64z"/>
<path d="M2471 2964 c0 -11 3 -14 6 -6 3 7 2 16 -1 19 -3 4 -6 -2 -5 -13z"/>
<path d="M2521 2964 c0 -11 3 -14 6 -6 3 7 2 16 -1 19 -3 4 -6 -2 -5 -13z"/>
<path d="M2541 2954 c0 -11 3 -14 6 -6 3 7 2 16 -1 19 -3 4 -6 -2 -5 -13z"/>
<path d="M2561 2934 c0 -11 3 -14 6 -6 3 7 2 16 -1 19 -3 4 -6 -2 -5 -13z"/>
<path d="M2508 2848 c-10 -10 -14 -18 -9 -18 10 0 36 29 30 34 -2 1 -12 -6
-21 -16z"/>
<path d="M2323 2753 c0 -20 14 -33 37 -33 9 0 11 3 4 8 -6 4 -13 15 -17 25 -3
9 -10 17 -15 17 -5 0 -9 -8 -9 -17z"/>
<path d="M2643 2745 c-23 -26 -21 -28 14 -19 13 4 20 11 17 16 -4 6 0 14 7 19
12 7 11 9 -1 9 -8 0 -25 -12 -37 -25z"/>
<path d="M2289 2666 c13 -15 9 -94 -9 -163 -7 -26 -5 -32 11 -36 22 -6 29 21
32 133 2 73 1 75 -23 78 -21 3 -22 2 -11 -12z"/>
<path d="M2673 2668 c-6 -8 -7 -39 -2 -83 4 -38 8 -80 8 -92 1 -16 7 -23 22
-23 15 0 19 5 15 18 -2 9 -8 52 -12 96 -5 61 -4 80 7 87 11 7 9 9 -7 9 -12 0
-26 -6 -31 -12z"/>
<path d="M2462 2560 c-54 -13 -46 -17 33 -16 71 1 80 7 25 18 -14 3 -40 2 -58
-2z"/>
<path d="M2345 2341 c-12 -21 40 -32 148 -32 116 0 179 13 159 33 -7 7 -17 6
-33 -6 -32 -22 -220 -23 -243 -1 -17 17 -23 18 -31 6z"/>
<path d="M1308 2389 c-30 -17 -22 -48 17 -66 41 -19 46 -43 10 -43 -14 0 -25
5 -25 10 0 6 -4 10 -10 10 -21 0 -9 -30 14 -36 39 -9 66 4 66 32 0 19 -8 28
-35 40 -19 8 -35 19 -35 24 0 20 31 22 50 5 18 -17 20 -17 20 -1 0 9 -12 21
-26 26 -30 12 -25 12 -46 -1z"/>
<path d="M3334 2386 c-10 -8 -16 -18 -12 -22 4 -4 14 -1 22 5 15 13 36 7 36
-9 0 -5 -13 -25 -30 -43 -41 -47 -38 -57 15 -57 33 0 45 4 45 15 0 11 -8 13
-32 8 l-33 -6 28 32 c32 38 35 66 8 81 -25 13 -23 13 -47 -4z"/>
<path d="M3482 2384 c-42 -29 -24 -124 23 -124 31 0 47 30 43 77 -4 48 -34 69
-66 47z m48 -55 c0 -28 -11 -49 -26 -49 -20 0 -29 47 -14 78 11 26 12 26 26 7
8 -10 14 -27 14 -36z"/>
<path d="M3624 2386 c-10 -8 -16 -18 -12 -22 4 -4 14 -1 22 5 15 13 36 7 36
-9 0 -5 -13 -25 -30 -43 -41 -47 -38 -57 15 -57 33 0 45 4 45 15 0 11 -8 13
-32 8 l-33 -6 28 32 c32 38 35 66 8 81 -25 13 -23 13 -47 -4z"/>
<path d="M1128 2383 c15 -6 17 -103 2 -103 -5 0 -10 -4 -10 -10 0 -5 25 -10
55 -10 41 0 55 4 55 14 0 8 -4 18 -10 21 -5 3 -10 1 -10 -4 0 -6 -11 -11 -25
-11 -18 0 -25 5 -25 20 0 15 7 20 25 20 14 0 25 5 25 10 0 6 -11 10 -25 10
-18 0 -25 5 -25 20 0 21 33 29 45 10 9 -15 25 -12 25 5 0 12 -13 15 -57 14
-32 0 -52 -3 -45 -6z"/>
<path d="M1430 2375 c0 -8 5 -15 10 -15 6 0 10 5 10 10 0 6 7 10 16 10 14 0
16 -10 12 -60 -4 -57 -3 -60 19 -60 13 0 23 5 23 10 0 6 -4 10 -10 10 -14 0
-12 87 2 96 6 4 14 2 16 -4 5 -17 22 -15 22 3 0 12 -13 15 -60 15 -47 0 -60
-3 -60 -15z"/>
<path d="M1608 2383 c15 -6 17 -103 2 -103 -5 0 -10 -4 -10 -10 0 -5 18 -10
40 -10 68 0 101 55 64 108 -12 18 -24 22 -62 21 -26 0 -41 -3 -34 -6z m71 -17
c7 -8 11 -30 9 -48 -2 -25 -8 -34 -25 -36 -21 -3 -23 0 -23 47 0 53 15 67 39
37z"/>
<path d="M3760 2371 c0 -11 -3 -27 -7 -36 -5 -15 -1 -16 25 -10 29 6 32 5 32
-19 0 -28 -18 -34 -38 -14 -17 17 -28 2 -12 -17 26 -31 80 -9 80 34 0 17 -32
42 -46 37 -9 -4 -14 2 -14 16 0 17 4 20 30 15 17 -4 30 -2 30 3 0 6 -18 10
-40 10 -33 0 -40 -3 -40 -19z"/>
<path d="M1375 1801 c-82 -49 -153 -95 -159 -103 -7 -11 7 -38 52 -104 289
-419 777 -662 1287 -641 305 13 601 116 835 291 153 114 390 384 390 444 0 14
-38 41 -151 107 -82 48 -158 89 -167 91 -12 3 -30 -16 -62 -63 -91 -137 -258
-281 -415 -360 -83 -42 -235 -89 -328 -102 -359 -50 -706 71 -954 332 -39 41
-89 102 -112 136 -23 33 -47 61 -54 60 -7 0 -79 -40 -162 -88z m149 -92 c14
-17 26 -37 26 -45 0 -19 -65 -84 -84 -84 -14 0 -76 67 -76 83 0 4 6 7 13 5 16
-4 88 52 81 63 -14 23 17 6 40 -22z m1991 22 c-6 -10 58 -66 75 -66 12 0 11
-14 -4 -37 -9 -15 -13 -14 -39 15 l-29 32 22 -37 c28 -50 20 -60 -33 -43 l-42
15 24 -20 c12 -11 27 -17 32 -14 14 9 10 -22 -4 -35 -11 -8 -23 -2 -56 29 -23
22 -46 38 -51 35 -18 -11 -19 13 0 30 18 16 22 16 60 1 22 -9 43 -16 46 -16 3
0 -6 19 -20 41 -20 34 -22 45 -13 60 7 11 18 19 25 19 7 0 11 -4 7 -9z m-1894
-131 c10 -6 19 -18 19 -26 0 -8 -4 -13 -8 -10 -5 3 -21 -8 -36 -23 -28 -29
-32 -61 -9 -68 12 -4 68 51 68 67 0 19 13 19 29 1 17 -19 17 -21 -19 -53 -57
-50 -64 -53 -94 -31 -37 28 -38 62 -2 97 16 15 27 35 24 42 -6 17 2 18 28 4z
m1760 -92 c32 -18 59 -35 59 -38 0 -3 -9 -11 -20 -18 -17 -10 -20 -10 -20 3 0
19 -14 19 -30 0 -10 -12 -10 -18 -1 -29 10 -12 8 -17 -8 -25 -27 -15 -31 -14
-31 8 0 11 -9 40 -20 66 -32 75 -18 81 71 33z m-1596 -48 c3 -6 2 -10 -3 -10
-5 0 -12 -9 -15 -20 -6 -22 -5 -23 17 -14 9 3 16 13 16 21 0 13 3 14 21 2 20
-14 26 -28 12 -30 -25 -2 -83 -45 -83 -61 0 -22 -23 -24 -39 -4 -10 12 -8 19
8 35 15 15 21 34 21 66 0 42 2 45 19 35 11 -5 23 -15 26 -20z m1423 -38 c-32
-5 -45 -19 -30 -34 8 -8 15 -8 27 2 23 19 31 3 10 -20 -15 -17 -16 -23 -6 -33
10 -9 16 -7 28 11 18 26 29 28 37 7 3 -10 -10 -25 -39 -45 -25 -17 -45 -30
-46 -28 0 2 -2 11 -4 20 -5 29 -46 89 -56 82 -5 -3 -9 1 -9 8 0 7 19 25 43 39
38 24 43 25 55 10 11 -14 10 -16 -10 -19z m-149 -71 c8 -5 15 -18 16 -28 0
-11 11 -30 23 -43 12 -13 22 -27 22 -32 0 -14 -27 -9 -40 7 -14 17 -50 20 -50
5 0 -6 7 -13 15 -16 16 -7 21 -34 6 -34 -5 0 -16 -2 -23 -5 -9 -4 -17 8 -26
39 -6 24 -19 51 -28 60 -19 20 -19 21 26 40 42 18 41 18 59 7z m-1037 -52 c-3
-29 -2 -31 12 -20 8 7 14 18 13 23 -3 17 17 19 37 5 16 -12 15 -15 -23 -40
-39 -26 -46 -36 -41 -66 1 -10 -6 -12 -27 -6 -37 9 -40 13 -18 29 15 11 17 22
12 69 -7 55 -7 56 15 48 19 -7 22 -15 20 -42z m880 -26 c40 -46 33 -98 -18
-119 -43 -18 -68 -18 -61 0 7 18 -13 96 -25 96 -19 0 -1 25 23 31 42 12 65 10
81 -8z m-655 -30 c21 -32 7 -82 -30 -103 -24 -13 -30 -13 -54 0 -48 27 -41
110 10 129 30 11 56 2 74 -26z m123 -4 c11 -8 12 -12 3 -16 -8 -3 -13 -23 -13
-49 0 -40 2 -44 24 -44 21 0 24 6 28 43 2 23 1 44 -4 45 -20 8 -5 22 23 22 27
0 30 -2 23 -22 -4 -13 -10 -41 -13 -63 -7 -47 -42 -67 -86 -47 -22 10 -25 18
-25 61 0 27 -3 56 -6 65 -7 19 22 22 46 5z m250 -14 c7 -8 10 -25 7 -36 -3
-12 1 -35 8 -50 11 -20 12 -30 3 -35 -10 -7 -18 1 -43 40 -7 11 -14 13 -25 6
-12 -7 -12 -12 -2 -22 19 -19 14 -28 -16 -28 l-28 0 4 60 c3 42 1 60 -7 60 -7
0 -9 5 -6 10 10 16 91 12 105 -5z"/>
<path d="M1486 1681 c-7 -10 22 -37 30 -28 9 8 -3 37 -15 37 -5 0 -12 -4 -15
-9z"/>
<path d="M1443 1644 c-8 -21 13 -42 28 -27 13 13 5 43 -11 43 -6 0 -13 -7 -17
-16z"/>
<path d="M3336 1485 c4 -8 10 -12 15 -9 11 6 2 24 -11 24 -5 0 -7 -7 -4 -15z"/>
<path d="M3014 1319 c-10 -17 13 -36 27 -22 12 12 4 33 -11 33 -5 0 -12 -5
-16 -11z"/>
<path d="M2845 1228 c12 -53 18 -60 39 -45 26 19 9 71 -23 75 -21 3 -22 1 -16
-30z"/>
<path d="M2170 1229 c-18 -33 -9 -64 19 -64 18 0 27 8 34 28 16 48 -30 80 -53
36z"/>
<path d="M2560 1200 c0 -15 5 -20 18 -18 9 2 17 10 17 18 0 8 -8 16 -17 18
-13 2 -18 -3 -18 -18z"/>
</g>
</svg>
